# File created by Blade
# Date/Time:  Wed Jan 21 14:58:10 2015
# Frame Rate: 120.000 fps
#------------------------------------------------------
:FULLY-SPECIFIED
:DEGREES
1074
root 17.645919 35.382019 -22.662905 -172.403109 4.527296 -178.207803
Spine -17.550145 3.539141 0.518979
Head 12.828411 -2.083649 0.835688
LeftShoulder -11.396619 -30.385279 18.514271
LeftArm -4.241755 5.602644 -12.416019
LeftForeArm 10.708857 0.000000 -3.593336
LeftHand -11.434530 -0.000000 -1.628765
LeftHandThumb1 -26.253704 0.000000 33.147579
RightShoulder -12.480987 -3.404306 -11.881229
RightArm 5.750082 37.363749 15.488589
RightForeArm -35.972855 -0.000000 3.655511
RightHand -5.881367 -0.000000 7.555174
RightHandThumb1 -24.326973 -0.000000 -32.862282
LeftUpLeg 1.098262 14.706329 4.639246
LeftLeg -5.976058 -0.000000 0.000000
LeftFoot -20.529164 27.729670 -14.234884
LeftToeBase 26.158991 -0.000000 -0.000000
RightUpLeg -2.004282 -2.811497 -2.592155
RightLeg -2.581782 -0.000000 0.000000
RightFoot -18.744930 -16.080556 16.569137
RightToeBase 23.545800 -0.000000 -0.000000
1075
root 17.645524 35.382161 -22.664273 -172.451069 4.521081 -178.204343
Spine -17.528997 3.598191 0.507232
Head 12.930520 -2.164528 0.820987
LeftShoulder -11.354090 -30.424540 18.538492
LeftArm -4.191880 5.504104 -12.320305
LeftForeArm 10.618098 -0.000000 -3.634791
LeftHand -11.438893 -0.000000 -1.569880
LeftHandThumb1 -26.253704 0.000000 33.147579
RightShoulder -12.471818 -3.386482 -11.863831
RightArm 5.676858 36.909509 15.360747
RightForeArm -35.604243 -0.000000 3.773882
RightHand -5.932462 -0.000000 7.646490
RightHandThumb1 -24.326973 -0.000000 -32.862282
LeftUpLeg 1.136228 14.689739 4.654549
LeftLeg -5.952625 -0.000000 0.000000
LeftFoot -20.562024 27.731843 -14.262509
LeftToeBase 26.155239 -0.000000 -0.000000
RightUpLeg -1.966965 -2.823970 -2.591150
RightLeg -2.553924 -0.000000 0.000000
RightFoot -18.734305 -16.087431 16.562655
RightToeBase 23.425021 -0.000000 -0.000000
1076
root 17.645660 35.382431 -22.664184 -172.494668 4.507932 -178.195878
Spine -17.508115 3.636468 0.501761
Head 13.036142 -2.231317 0.815730
LeftShoulder -11.339256 -30.430221 18.583012
LeftArm -4.122869 5.292859 -12.231768
LeftForeArm 10.551493 -0.000000 -3.664656
LeftHand -11.442392 -0.000000 -1.512329
LeftHandThumb1 -26.253704 0.000000 33.147579
RightShoulder -12.459055 -3.370461 -11.834828
RightArm 5.733907 36.852387 15.312028
RightForeArm -35.587753 -0.000000 3.714604
RightHand -5.872174 -0.000000 7.528135
RightHandThumb1 -24.326973 -0.000000 -32.862282
LeftUpLeg 1.167044 14.665133 4.675732
LeftLeg -5.929181 -0.000000 0.000000
LeftFoot -20.571893 27.748413 -14.246537
LeftToeBase 26.130775 -0.000000 -0.000000
RightUpLeg -1.934217 -2.847743 -2.581904
RightLeg -2.528221 -0.000000 0.000000
RightFoot -18.753387 -16.083775 16.586814
RightToeBase 23.290080 -0.000000 -0.000000
1077
root 17.645009 35.382996 -22.665530 -172.527737 4.494959 -178.193588
Spine -17.508768 3.692511 0.479569
Head 13.142771 -2.308284 0.823769
LeftShoulder -11.281703 -30.469048 18.623627
LeftArm -4.119513 5.146336 -12.138742
LeftForeArm 10.543134 -0.000000 -3.613579
LeftHand -11.511422 -0.000000 -1.623625
LeftHandThumb1 -26.253704 0.000000 33.147579
RightShoulder -12.468642 -3.413696 -11.803046
RightArm 5.773399 36.852441 15.271528
RightForeArm -35.502044 -0.000000 3.747861
RightHand -5.978416 -0.000000 7.566386
RightHandThumb1 -24.326973 -0.000000 -32.862282
LeftUpLeg 1.192274 14.643370 4.685428
LeftLeg -5.912278 -0.000000 0.000000
LeftFoot -20.589406 27.754638 -14.260541
LeftToeBase 26.140774 -0.000000 -0.000000
RightUpLeg -1.910269 -2.882567 -2.580416
RightLeg -2.503604 -0.000000 0.000000
RightFoot -18.743333 -16.033637 16.571796
RightToeBase 23.356058 -0.000000 -0.000000
1078
root 17.643868 35.384228 -22.664792 -172.535218 4.486065 -178.181250
Spine -17.537231 3.736862 0.485639
Head 13.258379 -2.361837 0.805781
LeftShoulder -11.255896 -30.493916 18.640125
LeftArm -4.058929 5.089937 -12.033087
LeftForeArm 10.350173 -0.000000 -3.626167
LeftHand -11.540736 0.000000 -1.498633
LeftHandThumb1 -26.253704 0.000000 33.147579
RightShoulder -12.467546 -3.434624 -11.802527
RightArm 5.830643 36.848273 15.261205
RightForeArm -35.551223 -0.000000 3.774458
RightHand -6.065236 -0.000000 7.476285
RightHandThumb1 -24.326973 -0.000000 -32.862282
LeftUpLeg 1.182252 14.656407 4.697394
LeftLeg -5.884607 -0.000000 0.000000
LeftFoot -20.590241 27.730283 -14.251054
LeftToeBase 26.124363 -0.000000 -0.000000
RightUpLeg -1.894813 -2.815791 -2.572362
RightLeg -2.513473 -0.000000 0.000000
RightFoot -18.752150 -16.133196 16.634543
RightToeBase 23.152039 -0.000000 -0.000000
1079
root 17.643093 35.384519 -22.665328 -172.567619 4.453189 -178.176431
Spine -17.530787 3.754051 0.480879
Head 13.359770 -2.411534 0.808887
LeftShoulder -11.240544 -30.503379 18.687875
LeftArm -4.008995 4.991414 -11.955379
LeftForeArm 10.360734 -0.000000 -3.611413
LeftHand -11.532049 -0.000000 -1.535557
LeftHandThumb1 -26.253704 0.000000 33.147579
RightShoulder -12.461574 -3.438617 -11.794616
RightArm 5.870217 36.806765 15.243332
RightForeArm -35.612404 -0.000000 3.788042
RightHand -6.063364 0.000000 7.411192
RightHandThumb1 -24.326973 -0.000000 -32.862282
LeftUpLeg 1.199836 14.613487 4.710707
LeftLeg -5.862952 -0.000000 0.000000
LeftFoot -20.598900 27.743913 -14.239431
LeftToeBase 26.096758 -0.000000 -0.000000
RightUpLeg -1.861788 -2.851793 -2.564005
RightLeg -2.505214 -0.000000 0.000000
RightFoot -18.779495 -16.113068 16.650207
RightToeBase 23.361162 -0.000000 -0.000000
